<svg xmlns="http://www.w3.org/2000/svg" xmlns:xlink="http://www.w3.org/1999/xlink">
    <defs>
        <path id="a" d="M0 0h16v15H0z"></path>
    </defs>
    <symbol id="SBB_oev_b_t02" viewBox="0 0 20 20">
        <path d="M15.3 13.7c.2 0 .3-.1.3-.3l-.3-1.9h-3.2v2.2h3.2zM8.6 4.2L10.3 3 8 1.7 5.7 3l1.8 1.2h1.1zm3.3 3.3c0 .2.1.3.3.3h1.6c.2 0 .3-.1.3-.3l-.3-2.4c0-.2-.2-.3-.3-.3h-1.3c-.2 0-.3.1-.3.3v2.4zM7.7 4.8H.5v-.6h5.9L4.5 3 8 1l3.5 2-1.9 1.2h3.8c.5 0 .9.3.9.8l.8 5.9H.5V7.8h7.2c.2 0 .3-.1.3-.3 0-.2-.1-.3-.3-.3H.5v-.6h7.2c.2 0 .3-.1.3-.3S7.9 6 7.7 6H.5v-.6h7.2c.2 0 .3-.1.3-.3 0-.1-.1-.3-.3-.3zM4.5 13c0-.9.7-1.6 1.6-1.6s1.6.7 1.6 1.6-.7 1.6-1.6 1.6c-.9 0-1.6-.7-1.6-1.6m3.7 0c0-.9.7-1.6 1.6-1.6s1.6.7 1.6 1.6-.7 1.6-1.6 1.6-1.6-.7-1.6-1.6M.5.8h15V.5H.5v.3zm0 14.7h15v-.6H.5v.6zm0-3.9l3.4-.1v2.2H.5v-2.1z"
              transform="translate(2 2)" id="sbb_oev_b_t02"></path>
    </symbol>
    <symbol id="SBB_oev_b_t04" viewBox="0 0 20 20">
        <path d="M8.683 3.481a.288.288 0 1 1 .408-.408l3.237 3.237h2.574c.461 0 .869.301 1.004.742l1.58 5.176a.509.509 0 0 1 .021.145v2.258a.313.313 0 0 1-.312.312H2.493v-3.691h3.034a.314.314 0 0 0 .313-.312V7.186a.313.313 0 0 0-.313-.313H2.493V6.31h9.019L8.683 3.481zm5.698 8.71c0 .172.141.311.312.311h1.85a.312.312 0 0 0 .314-.311.314.314 0 0 0-.016-.094L15.33 7.143a.467.467 0 0 0-.449-.333h-.031c-.26 0-.469.21-.469.469v4.912zm-1.518-.095a.47.47 0 1 0 .938 0V7.28a.468.468 0 1 0-.938 0v4.816zm-2.079-4.91a.313.313 0 0 0-.313-.313H6.716a.313.313 0 0 0-.313.313v3.754c0 .171.14.312.313.312h3.754a.314.314 0 0 0 .313-.312l.001-3.754zm.562.094v4.816a.47.47 0 0 0 .938 0V7.28a.468.468 0 1 0-.938 0z"></path>
    </symbol>
    <symbol id="SBB_oev_b_t06" viewBox="0 0 20 20">
        <g id="sbb_oev_b_t06">
            <path d="M4.2 9c0 .2.1.3.3.3h3.8c.2 0 .3-.1.3-.3V5.3c0-.2-.1-.3-.3-.3H4.6c-.2 0-.4.1-.4.3V9zm5.1 1.2c0 .3.2.5.5.5s.5-.2.5-.5V5.4c0-.3-.2-.5-.5-.5s-.5.2-.5.5v4.8zm1.6 0c0 .3.2.5.5.5s.5-.2.5-.5V5.4c0-.3-.2-.5-.5-.5s-.5.2-.5.5v4.8zm1.6.1c0 .2.1.3.3.3h1.7c.2 0 .3-.1.3-.3v-.1l-1.3-4.9c0-.2-.2-.4-.5-.4s-.5.2-.5.5v4.9zM3.3 5H.5v-.7h12.6c.5 0 1 .3 1.1.8l1.3 5v3.5c0 .3-.2.5-.5.5H9.2c-.3 0-.5-.2-.5-.5v-.1c0-1.6-1.3-2.9-2.9-2.9-1.6 0-2.9 1.3-2.9 2.9v.1c0 .3-.2.5-.5.5H.5V9.4h2.8c.2 0 .3-.1.3-.3V5.3c0-.2-.1-.3-.3-.3z"></path>
            <path d="M5.8 14.7c.7 0 1.2-.6 1.2-1.2s-.5-1.3-1.2-1.3-1.3.6-1.3 1.3c0 .7.6 1.2 1.3 1.2m0-3.4c1.2 0 2.2 1 2.2 2.2s-1 2.2-2.2 2.2c-1.2 0-2.2-1-2.2-2.2s1-2.2 2.2-2.2"></path>
        </g>
    </symbol>
    <symbol id="SBB_oev_b_t10" viewBox="0 0 20 20">
        <path d="M3.4 7.5l1.1 1.7L8.4 9l-.9-6.5H9l2.2 6.6h5.3c.5 0 .9.4.9.9s-.4.9-.9.9h-5.3L9 17.5H7.5l.9-6.6-3.9-.1-1.1 1.7h-.9l.6-2.5-.6-2.5h.9z"
              id="sbb_oev_b_t10"></path>
    </symbol>
    <symbol id="SBB_oev_b_t12" viewBox="0 0 20 20">
        <path d="M2 2.4V1.2c0-.2.1-.3.3-.3H4c.2 0 .3.1.3.3l.2 1.3v.1c0 .2-.1.3-.3.3H2.3c-.2-.1-.3-.3-.3-.5zm0 3.8V4.9c0-.2.1-.3.3-.3h1.9c.2 0 .3.1.3.3v1.3c0 .2-.1.3-.3.3H2.3c-.2 0-.3-.1-.3-.3zm3.1 0V4.9c0-.2.1-.3.3-.3H7c.2 0 .3.1.3.3l.2 1.3v.1c0 .2-.1.3-.3.3H5.4c-.2-.1-.3-.2-.3-.4zM1.1.9c.2 0 .3.1.3.3v1.3c0 .2-.1.3-.3.3H.5v1.9h.6c.2 0 .3.1.3.3v1.3c0 .2-.1.3-.3.3H.5v3.8c.3 0 .6 0 .9-.1l2.1-.4c.2 0 .5 0 .7-.1.2 0 .5 0 .7.1l2.1.4c.3.1.6.1.9.1.3 0 .6 0 .9-.1l2.2-.5c.2 0 .5 0 .7-.1.2 0 .5 0 .7.1l1.3.3 1.9-3.6H8.2l-.3-1.9H9V2.8H5.1L4.8.9h.4c.2 0 .3-.1.3-.3S5.4.3 5.2.3H.5v.6h.6zm2.5 9.5h1.2l2.2.4c.3.1.7.1 1 .1.4 0 .7 0 1-.1l2.1-.4h1.2l2.1.4c.3.1.7.1 1 .1v.6c-.4 0-.8 0-1.2-.1l-1.9-.4h-1l-2.1.4c-.4.1-.8.1-1.2.1-.4 0-.8 0-1.2-.1l-2-.4h-1l-2.1.4c-.4.1-.8.1-1.2.1v-.6c.4 0 .7 0 1-.1l2.1-.4z"
              transform="translate(2 6)" id="sbb_oev_b_t12"></path>
    </symbol>
    <symbol id="SBB_oev_b_t21" viewBox="0 0 20 20">
        <path d="M17 6.9v3.8c0 .2-.1.3-.3.3h-2.3c-.2 0-.3-.1-.3-.3V6.9c0-.2.1-.3.3-.3h2.3c.1 0 .3.2.3.3M13.3 6v3.8c0 .2-.1.3-.3.3h-2.4c-.2 0-.3-.1-.3-.3V6c0-.2.1-.3.3-.3H13c.1 0 .3.1.3.3m-3.5-.9v3.8c0 .2-.1.3-.3.3H7s-.2-.2-.2-.3V5.1c0-.2.1-.3.3-.3h2.3c.1 0 .4.1.4.3m-3.6-.9V8c0 .2-.1.3-.3.3H3.5c-.3 0-.3-.1-.3-.3V4.2c0-.2.1-.3.3-.3h2.3c.2 0 .4.1.4.3m11 10.1c.2 0 .3-.1.3-.3V6.7c0-.3-.2-.6-.5-.7L3.3 2.5h-.2c-.4 0-.7.3-.7.7v7.2c0 .1.1.3.2.3l14.6 3.6c-.1 0 0 0 0 0M2.5 13.1l15 3.8v.6l-15-3.8v-.6zM14 14.5c0 .5-.4.9-.9.9s-.9-.4-.9-.9.4-.9.9-.9.9.4.9.9m2.3.6c0 .5-.4.9-.9.9s-.9-.4-.9-.9.4-.9.9-.9.9.4.9.9M7.8 13c0 .5-.4.9-.9.9S6 13.5 6 13s.4-1 .9-1 .9.5.9 1m-2.3-.6c0 .5-.4.9-.9.9s-.9-.4-.9-.9.4-.9.9-.9.9.4.9.9"
              id="sbb_oev_b_t21"></path>
    </symbol>
    <symbol id="SBB_oev_b_t22" viewBox="0 0 20 20">
        <path d="M5.31 2.526l5.394-.944A.58.58 0 1 0 10.503.44l-5.392.945a.578.578 0 1 0 .2 1.14M.492 4.26l15.016-2.63v-.573L.492 3.687v.572zm14.39 7.183c0 .173-.14.312-.312.312h-3.546a.312.312 0 0 1-.313-.312V8.315c0-.173.14-.313.313-.313h3.546c.172 0 .312.14.312.313v3.128zm-4.797 0c0 .173-.14.312-.313.312H6.227a.313.313 0 0 1-.313-.312V8.315c0-.173.14-.313.313-.313h3.546c.172 0 .313.14.313.313v3.128h-.001zm-4.796 0c0 .173-.14.312-.313.312H1.43a.312.312 0 0 1-.312-.312V8.315c0-.173.14-.313.312-.313h3.546c.173 0 .313.14.313.313v3.128zm9.593-4.067h-3.097l-2.317-4.37-.875.152 2.236 4.218H5.202l2.076-3.988-1.087.19-1.976 3.798H1.118a.626.626 0 0 0-.626.626v6.883c0 .346.28.626.626.626h13.765c.345 0 .626-.28.626-.626V8.002a.627.627 0 0 0-.627-.626z"
              transform="translate(2 2)" id="sbb_oev_b_t22" fill="#FFF"></path>
    </symbol>
    <symbol id="SBB_oev_b_t23" viewBox="0 0 20 20">
        <g id="sbb_oev_b_t23" fill="#FFF">
            <path d="M13.6 2.677l1.908.318v.57L13.6 3.248v-.571zm-1.188-.199v.571L.492 1.063V.491l11.92 1.987z"
                  transform="translate(2 2)"></path>
            <path d="M11.13 11.442V8.314c0-.173.138-.314.311-.314h3.13c.171 0 .311.14.311.314v3.128c0 .173-.14.312-.312.312h-3.129a.311.311 0 0 1-.312-.312zm0-4.068a.626.626 0 0 0-.627.626v3.63c0 .082.008.164.025.245l.625 3.13a.626.626 0 0 0 .614.503h2.478c.298 0 .556-.21.613-.503l.626-3.13c.016-.081.024-.162.024-.245V8a.626.626 0 0 0-.626-.626h-1.595V1.93h-.564v5.443H11.13z"
                  transform="translate(2 2)"></path>
        </g>
    </symbol>
    <symbol id="SBB_oev_b_t25" viewBox="0 0 20 20">
        <g fill="#FFF" id="sbb_oev_b_t25">
            <path d="M4.8 2.3L15.5.5v.6L4.8 2.8v-.5zm-1.5.2v.6l-2.8.5V3l2.8-.5zm-1.4 9.7V9.1c0-.5.4-.9.9-.9.3 0 .6.1.8.4l1.6 2.2c.1.1.1.2.1.2 0 .2-.2.4-.4.4-.1 0-.3-.1-.3-.2l-.6-.9v1.3h1.7c.3 0 .6.3.6.6v2.6c0 .3-.3.6-.6.6s-.6-.3-.6-.6v-2.1H2.6c-.4.1-.7-.2-.7-.5"
                  transform="translate(2 2)"></path>
            <path d="M3.7 1.7h.8V5l-3.2.6v7.9h3.2v.8h-4V4.9l3.2-.5V1.7z" transform="translate(2 2)"></path>
            <path d="M3 7.8c-.5 0-.9-.4-.9-.9S2.5 6 3 6s.9.4.9.9-.4.9-.9.9" transform="translate(2 2)"></path>
        </g>
    </symbol>
    <symbol id="SBB_oev_b_t29" viewBox="0 0 20 20">
        <g id="sbb_oev_b_t29">
            <path d="M4.873.782h.331V.473h-.33v.309zm0 1.586h.329V.93h-.33v1.437zm-3.849 0h.351V.795h.53V.49H.492v.303h.533v1.575zM3.083 1.32c0-.302-.237-.418-.578-.418-.345 0-.642.124-.648.48h.318c.005-.148.15-.227.317-.227.108 0 .277.01.277.22 0 .082-.019.07-.385.132-.283.046-.586.087-.586.457 0 .317.252.452.549.452.246 0 .372-.092.439-.198 0 .125 0 .15.01.15h.339c-.032-.04-.052-.118-.052-.315v-.734zm-.318.53c0 .217-.173.313-.356.313-.118 0-.258-.047-.258-.2 0-.129.099-.168.208-.19.135-.029.345-.063.407-.083l-.001.16zm.552.518h.39l.296-.49.292.49h.388l-.49-.754.45-.687h-.385l-.254.417-.248-.417h-.39l.455.683-.504.758zM8 8.954h.627V7.702H8v1.252zm-6.245 2.722h3.742c.172 0 .312-.14.312-.313v-1.282a.313.313 0 0 0-.312-.313H3.34a.312.312 0 0 0-.22.091l-1.497 1.497a.187.187 0 0 0 .132.32zm4.648-1.595l.002 1.282c0 .173.14.313.313.313h3.553a.188.188 0 0 0 .132-.32L8.908 9.859a.314.314 0 0 0-.222-.091H6.715a.313.313 0 0 0-.312.313zm-3.758-.633a.94.94 0 0 1 .663-.276h5.41c.248 0 .487.099.663.275l2.18 2.181 3.66.304a.312.312 0 0 1 .287.311v1.95c0 .173-.14.313-.312.313h-.344v-.36a1.878 1.878 0 0 0-3.755 0v.36H4.873v-.36a1.877 1.877 0 0 0-3.754 0v.36H.806a.313.313 0 0 1-.314-.313v-2.205c0-.249.1-.487.275-.663l1.878-1.877z"
                  transform="translate(2 2)"></path>
            <path d="M3 12.737a1.424 1.424 0 1 1 0 2.847 1.424 1.424 0 0 1 0-2.847m-.018 2.217a.782.782 0 1 0 0-1.563.782.782 0 0 0 0 1.563m9.992-2.206a1.424 1.424 0 1 1 0 2.848 1.424 1.424 0 0 1 0-2.848m0 2.206a.782.782 0 1 0 0-1.563.782.782 0 0 0 0 1.563"
                  transform="translate(2 2)"></path>
        </g>
    </symbol>
    <symbol id="SBB_service_businesszone" viewBox="0 0 24 24">
        <path d="M12.6 18.4h7.7v-1.7h-5.4l5.4-9.4V5.6H13v1.7h5l-5.4 9.5v1.6zm-8.9 0h4.1c2.4 0 4-1.4 4-3.5 0-2.2-.9-3-2.3-3.3 1.3-.4 1.9-1.4 1.9-2.9 0-2.3-1.5-3.1-3.5-3.1H3.7v12.8zm2-1.5v-4.4h1.9c1.2 0 2 .8 2 2.2 0 1.5-.7 2.3-1.9 2.3h-2zm0-5.9V7.1h1.4c1.2 0 2.1.3 2.1 1.8 0 1.2-.6 2-1.9 2H5.7z"></path>
    </symbol>
    <symbol id="SBB_service_family" viewBox="0 0 24 24">
        <path d="M13.9 13.5h3.6l-.7-5.7-2.9 5.7zm2-8h2.6l2.1 13h-2.3l-.4-3H13l-1.5 3H8.9l7-13zm-10 0h6.4l-.4 2H7.8l-.6 3.2h3.9l-.4 2H6.8l-1 5.7H3.4L5.9 5.5z"></path>
    </symbol>
    <symbol id="SBB_service_map" viewBox="0 0 24 24">
        <path d="M11.953 4C8.671 4 6 6.642 6 9.89c0 .848.175 1.656.521 2.404 1.489 3.223 4.342 6.625 5.182 7.59a.33.33 0 0 0 .502.001c.838-.965 3.693-4.367 5.182-7.59a5.683 5.683 0 0 0 .521-2.404C17.906 6.642 15.236 4 11.953 4m.001 8.93a2.98 2.98 0 0 1-2.977-2.976 2.98 2.98 0 0 1 2.977-2.978 2.98 2.98 0 0 1 2.976 2.978 2.979 2.979 0 0 1-2.976 2.976"></path>
    </symbol>
    <symbol id="SBB_service_minibar" viewBox="0 0 24 24">
        <path d="M11.4 17.2V13c-.8-.1-1.5-.4-2-.9s-.7-1-.8-1.6c-.1-.5-.1-.9-.1-1.2V5.5h7v3.8c0 .2 0 .6-.1 1.2-.1.5-.4 1.1-.8 1.6-.5.5-1.2.8-2 .9v4.2h2.9v1.3h-7v-1.3h2.9z"></path>
    </symbol>
    <symbol id="SBB_service_quietzone" viewBox="0 0 24 24">
        <path d="M12.6 18.4h7.7v-1.7h-5.4l5.4-9.4V5.6H13v1.7h5l-5.4 9.5v1.6zm-6.9-7.1V7.1h1.7c1.3 0 1.9.7 1.9 2.1 0 1.3-.7 2.1-2.1 2.1H5.7zm-2 7.1h2.1v-5.6h1.7c1.4 0 1.8.6 1.9 2 0 .9 0 1.7.1 2.4.1.5.1.9.3 1.1H12c-.3-.2-.6-.5-.6-1.1 0-.8-.1-1.8-.1-2.6-.1-1.8-.7-2.5-2-2.6 1.4-.2 2.1-1.5 2.1-3.2 0-2.4-1.5-3.3-3.3-3.3H3.7v12.9z"></path>
    </symbol>
    <symbol id="SBB_service_reservation" viewBox="0 0 24 24">
        <path d="M11.2 11h-.9V7.2h.9c.7 0 1.1.1 1.4.4.3.3.4.7.4 1.4 0 .6-.2 1.1-.5 1.5-.3.3-.7.5-1.3.5zm3 2.5c-.2-.5-.3-.9-.5-1.1-.2-.2-.4-.4-.8-.5 1.5-.3 2.2-1.4 2.2-3.1 0-1.1-.3-1.9-.9-2.5-.6-.6-1.4-.9-2.5-.9H8.3v13h2.1v-5.6h.5c.8 0 1.3.5 1.6 1.4l1.1 4.2h2.2l-1.6-4.9z"></path>
    </symbol>
    <symbol id="SBB_service_restaurant" viewBox="0 0 24 24">
        <path d="M6.2 7.5c-.1.1-.1.3-.2.4v.4c0 .7.3 1.3.8 1.8l.6.6 2 2.1 1.2-1-4.4-4.3v-.4.4zm2 6.3l-2.1-2.1-.9-1c-.4-.7-.7-1.4-.7-2.2 0-1.1.4-2.1 1.3-3.1l.2-.3.1-.1 5.2 5.5V8.4l4-3.4 1 1-3.6 3v1.6l4.4-3.8 1 1-4.5 3.8 1.7.1 3.6-3 1 .9L16 13l-2.4-.1 4.5 4.7-1.9 1.4-4.6-4.8-.1-.3-.1.3L5.6 19 4 17.3l4.2-3.5z"></path>
    </symbol>
    <symbol id="SBB_service_traintype" viewBox="0 0 24 24">
        <path d="M17.6 15.8h-2.7c-.3 0-.5-.1-.7-.3-.2-.2-.3-.4-.3-.7h4.8c0 .3-.1.5-.3.7-.3.2-.6.3-.8.3zm-8.5 0H6.4c-.3 0-.5-.1-.7-.3-.2-.2-.3-.4-.3-.7h4.8c0 .3-.1.5-.3.7-.2.2-.5.3-.8.3zm-4.1-4h14v-2H5v2zM4 8.2h16v6H4v-6z"></path>
    </symbol>
    <symbol id="SBB_service_walk" viewBox="0 0 24 24">
        <path d="M17.3 11.2l-2.2-1-1.4-2.9c0-.1-.1-.2-.1-.3v-.1c-.1-.2-.2-.3-.4-.4l-.6-.3h-.4c-.1 0-.2 0-.4.1s-.4.1-.5.3L7.8 8.4c-.1 0-.1.1-.2.1-.1.1-.2.3-.3.4l-.5 2.7c0 .4.2.7.5.8.3.1.7-.2.7-.5l.5-2.6 1.8-.9-.8 3.5v.3L9 15.9v.1l-2.4 3.6c-.3.4-.2 1 .1 1.2.3.2.9 0 1.2-.4l2.4-3.6c.1-.1.1-.2.2-.4 0-.1.1-.1.1-.2l.4-2.7h.2c.2 0 .3.1.5.2l2.5 2.9.8 3.6c.1.5.5.7.9.7.4-.1.7-.5.6-1l-.8-3.6c0-.1-.1-.3-.2-.4l-.1-.1-2.6-3 .7-3.1.6 1.2s0 .1.1.1c0 .2.2.3.3.4l2.4 1c.3.1.7 0 .8-.3 0-.4-.1-.8-.4-.9zM13 3.1c.9 0 1.6.7 1.6 1.5s-.7 1.6-1.6 1.6-1.6-.7-1.6-1.5.8-1.6 1.6-1.6z"></path>
    </symbol>
    <symbol id="SBB_trainformation_bike" viewBox="0 0 24 24">
        <g id="-Icons">
            <g id="sbb_formationsanzeige_veloverlad">
                <g id="Group-9" transform="translate(0 5)">
                    <path d="M14.23.795l2.415.863a.494.494 0 0 0 .58-.197l.542-.823a.42.42 0 0 0 .067-.228.404.404 0 0 0-.399-.41h-3.072a.405.405 0 0 0-.4.41c0 .174.107.328.267.385"
                          id="Fill-65"></path>
                    <path d="M6.217.819h3.5V0h-3.5a.404.404 0 0 0-.4.41c0 .225.18.409.4.409" id="Fill-66"></path>
                    <path d="M6.217 3.216h.5c.22 0 .4-.183.4-.409 0-.226-.18-.41-.4-.41h-.5a.404.404 0 0 0-.4.41c0 .226.18.41.4.41"
                          id="Fill-67"></path>
                    <path d="M19.1 12.623c-2.09 0-3.846-1.61-4.077-3.733h3.416a.795.795 0 0 0 .661.358.81.81 0 0 0 .799-.818.81.81 0 0 0-.824-.818l-1.791-2.941a4.037 4.037 0 0 1 1.816-.433c2.263 0 4.098 1.877 4.098 4.192 0 2.314-1.835 4.193-4.098 4.193zm-2.496-7.52l1.807 2.969h-3.396a4.21 4.21 0 0 1 1.59-2.968zm-2.392 2.969h-.936a1.34 1.34 0 0 0-.254-.566l2.62-3.985.539.883a5.052 5.052 0 0 0-1.97 3.668zm-1.854-1.023a1.273 1.273 0 0 0-.716 0L9.12 3.215h5.76l-2.522 3.834zM8.999 8.43c0 2.314-1.836 4.193-4.1 4.193-2.263 0-4.1-1.879-4.1-4.193 0-2.315 1.837-4.192 4.1-4.192.631 0 1.251.148 1.817.433L4.559 8.214a.427.427 0 0 0-.06.216c0 .226.179.409.4.409a.397.397 0 0 0 .34-.194l2.157-3.541A4.228 4.228 0 0 1 8.999 8.43zM19.1 3.419c-.78 0-1.548.19-2.24.554l-.96-1.576H8.1l-.961 1.576a4.8 4.8 0 0 0-2.24-.554C2.195 3.419 0 5.663 0 8.43c0 2.765 2.195 5.01 4.9 5.01 2.704 0 4.898-2.245 4.898-5.01a5.052 5.052 0 0 0-1.98-4.026l.54-.883 2.62 3.985a1.35 1.35 0 0 0-.279.822c0 .733.583 1.329 1.3 1.329a1.3 1.3 0 0 0 1.178-.767h1.043c.233 2.578 2.348 4.55 4.88 4.55 2.705 0 4.9-2.245 4.9-5.01 0-2.767-2.195-5.011-4.9-5.011z"
                          id="Fill-68"></path>
                </g>
            </g>
        </g>
    </symbol>
    <symbol id="SBB_trainformation_disability_access" viewBox="0 0 24 24">
        <g id="-Icons">
            <g id="sbb_formationsanzeige_barrierefrei">
                <g id="Group-5" transform="translate(7 5)">
                    <path d="M4.607 1.305c0 .72-.565 1.304-1.262 1.304-.697 0-1.262-.584-1.262-1.304C2.083.584 2.648 0 3.345 0c.697 0 1.262.584 1.262 1.305"
                          id="Fill-21"></path>
                    <path d="M9.94 12.62L8.233 8.471a.751.751 0 0 0-.692-.473H4.627l-.156-1.297h2.413c.254 0 .46-.212.46-.475a.468.468 0 0 0-.46-.476H4.357l-.192-1.588C4.094 3.57 3.572 3.15 3 3.223c-.573.074-.98.614-.908 1.207l.501 4.154c.006.05.026.176.026.192 0 .43.337.778.752.778h3.674l1.511 3.676c.122.295.4.473.693.473a.73.73 0 0 0 .294-.062.788.788 0 0 0 .398-1.02"
                          id="Fill-22"></path>
                    <path d="M7.674 11.114c-.62 1.087-1.764 1.817-3.073 1.817-1.97 0-3.567-1.651-3.567-3.688 0-1.023.404-1.95 1.055-2.617l-.142-1.268A4.798 4.798 0 0 0 0 9.243C0 11.87 2.06 14 4.601 14c1.435 0 2.717-.68 3.561-1.745l-.488-1.14z"
                          id="Fill-23"></path>
                </g>
            </g>
        </g>
    </symbol>
    <symbol id="SBB_trainformation_locomotive" viewBox="0 0 108 36">
        <g id="-Icons" fill="none" fill-rule="evenodd">
            <g id="sbb_formationsanzeige_lok" fill="#A8A8A8">
                <g id="Page-1">
                    <path d="M106.5 21L99.125 5.92C95.671-.139 89.794 0 89.794 0H17.853s-5.877-.139-9.332 5.92L1.146 21c-6 15 13.5 15 13.5 15H93s19.5 0 13.5-15zm-24-1.5h6v-12h-6v12zm7.5 0h12l-6-12h-6v12zm-70.853 0h6v-12h-6v12zm-1.5 0h-12l6-12h6v12z"
                          id="Combined-Shape"></path>
                </g>
            </g>
        </g>
    </symbol>
    <symbol id="SBB_trainformation_lokomotive_small" viewBox="0 0 24 24">
        <g id="Symbols" fill="none" fill-rule="evenodd">
            <g id="4_Icons/Timetable/Attributes/24px/Lok/Grey">
                <g id="4_Icons/Timetable/24px/Lok/Grey">
                    <g id="Page-1" transform="translate(4 5)">
                        <mask id="b" fill="#fff">
                            <use xlink:href="#a"></use>
                        </mask>
                        <path d="M34.627 7L32.23 1.973C31.106-.047 29.195 0 29.195 0H5.805S3.894-.046 2.77 1.973L.373 7c-1.951 5 4.39 5 4.39 5h25.475s6.34 0 4.39-5zm-7.803-.5h1.95v-4h-1.95v4zm2.438 0h3.902l-1.95-4h-1.952v4zm-23.037 0h1.951v-4h-1.95v4zm-.487 0H1.836l1.95-4h1.952v4z"
                              transform="translate(1 1)" mask="url(#b)" id="Combined-Shape" fill="#767676"></path>
                    </g>
                </g>
            </g>
        </g>
    </symbol>
    <symbol id="SBB_trainformation_sleep_couchette" viewBox="0 0 24 24">
        <g id="Symbols" fill-rule="evenodd">
            <g id="4_Icons/Timetable/Attributes/24px/Schlaf-Liegewagen/Grey">
                <g id="Group" transform="translate(1 8)">
                    <path d="M20.745 9V5.85h-8.011V9h-1.256V0h.574c.287 0 .647.172 1.082.52.435.346.81.749 1.126 1.209.315.462.552.914.71 1.359.157.444.237.915.237 1.412h1.247c0-.984.303-1.874.91-2.52.607-.647 1.35-1.119 2.23-1.08H22V9h-1.255z"
                          id="Imported-Layers"></path>
                    <path d="M5.733 4.05L8.844 0h1.678v9H9.266V5.85h-8.01V9H0V4.05z"></path>
                </g>
            </g>
        </g>
    </symbol>
    <symbol id="SBB_trainformation_sleeping_car" viewBox="0 0 24 24">
        <g id="-Icons" fill-rule="evenodd">
            <g id="sbb_sa_wl">
                <path d="M18.14 17v-3.15H6.36V17H5V8h.62c.312 0 .701.172 1.173.52.47.346.877.749 1.22 1.209.34.462.597.914.767 1.359.171.444.257.915.257 1.412h1.35c0-.984.329-1.874.986-2.52.657-.647 1.462-1.119 2.414-1.08H19.5V17h-1.36z"
                      id="Imported-Layers"></path>
            </g>
        </g>
    </symbol>
    <symbol id="SBB_utilization_high" viewBox="0 0 21 18">
        <path fill="#EB0000" d="M6 5H1v6h1v6h3v-6h1V5z"></path>
        <circle fill="#EB0000" cx="3.5" cy="2.5" r="1.5"></circle>
        <path fill="#EB0000" d="M13 5H8v6h1v6h3v-6h1V5z"></path>
        <circle fill="#EB0000" cx="10.5" cy="2.5" r="1.5"></circle>
        <path fill="#EB0000" d="M20 5h-5v6h1v6h3v-6h1V5z"></path>
        <circle fill="#EB0000" cx="17.5" cy="2.5" r="1.5"></circle>
    </symbol>
    <symbol id="SBB_utilization_low" viewBox="0 0 21 18">
        <path d="M6 5H1v6h1v6h3v-6h1V5z"></path>
        <circle cx="3.5" cy="2.5" r="1.5"></circle>
        <path fill="#BCBCBC" d="M13 5H8v6h1v6h3v-6h1V5z"></path>
        <circle fill="#BCBCBC" cx="10.5" cy="2.5" r="1.5"></circle>
        <path fill="#BCBCBC" d="M20 5h-5v6h1v6h3v-6h1V5z"></path>
        <circle fill="#BCBCBC" cx="17.5" cy="2.5" r="1.5"></circle>
    </symbol>
    <symbol id="SBB_utilization_medium" viewBox="0 0 21 18">
        <path d="M6 5H1v6h1v6h3v-6h1V5z"></path>
        <circle cx="3.5" cy="2.5" r="1.5"></circle>
        <path d="M13 5H8v6h1v6h3v-6h1V5z"></path>
        <circle cx="10.5" cy="2.5" r="1.5"></circle>
        <path fill="#BCBCBC" d="M20 5h-5v6h1v6h3v-6h1V5z"></path>
        <circle fill="#BCBCBC" cx="17.5" cy="2.5" r="1.5"></circle>
    </symbol>
    <symbol id="SBB_service_reservation_required" viewBox="0 0 24 24">
        <path d="M5 6h13v13H5V6zm1 12h11V7H6v11z"></path>
        <path d="M13.106 13.57c-.106-.352-.219-.606-.336-.76-.115-.155-.291-.263-.524-.325 1.014-.239 1.522-.957 1.522-2.157 0-.745-.203-1.318-.606-1.723C12.757 8.2 12.183 8 11.438 8H9v9h1.427v-3.88h.344c.548 0 .905.316 1.074.944L12.63 17h1.514l-1.037-3.43zm-2.086-1.753h-.593V9.163h.611c.452 0 .772.096.962.288.19.192.287.52.287.985 0 .433-.111.773-.33 1.016-.221.243-.534.365-.937.365z"></path>
    </symbol>
    <symbol id="SBB_service_special_surcharge" viewBox="0 0 24 24">
        <path d="M10.167 8.521a6.515 6.515 0 0 0-2.558-.539c-.864 0-1.98.377-1.98 1.746 0 2.178 5.51 1.26 5.51 5.473C11.139 17.957 8.96 19 6.421 19c-1.368 0-1.981-.18-3.223-.487l.235-2.267c.864.468 1.854.773 2.844.773.954 0 2.233-.486 2.233-1.619C8.51 13.005 3 13.996 3 9.835 3 7.027 5.179 6 7.394 6c1.08 0 2.088.144 3.006.451l-.233 2.07zm2.445 8.21l5.905-8.534h-5.672V6.216H21.2v2.053l-5.959 8.535h6.086v1.98h-8.715"></path>
    </symbol>
    <symbol id="SBB_service_special_tickets" viewBox="0 0 24 24">
        <path d="M4.629 9.728c0-1.369 1.116-1.746 1.98-1.746.883 0 1.765.197 2.558.539l.233-2.07C8.482 6.144 7.474 6 6.394 6 4.179 6 2 7.027 2 9.835c0 4.161 5.51 3.17 5.51 5.565 0 1.133-1.279 1.619-2.233 1.619-.99 0-1.98-.305-2.844-.773l-.235 2.267C3.44 18.82 4.053 19 5.421 19c2.539 0 4.718-1.043 4.718-3.799 0-4.213-5.51-3.295-5.51-5.473m11.502 7.076h-1.188v-3.637h1.188c1.26 0 2.593.252 2.593 1.89 0 1.458-1.423 1.747-2.593 1.747zm-1.188-8.607h.972c1.152 0 2.43.107 2.43 1.566 0 1.297-1.314 1.531-2.376 1.531h-1.026V8.197zm3.421 4.087v-.037c1.494-.269 2.503-1.314 2.503-2.808 0-2.754-2.43-3.223-4.052-3.223h-4.393v12.568h4.393c1.585 0 4.43-.468 4.43-3.636 0-1.549-1.17-2.7-2.88-2.864z"></path>
    </symbol>
    <symbol id="SBB_service_surcharge" viewBox="0 0 24 24">
        <path d="M7.928 19h7.775v-1.748h-5.5l5.445-9.504V6H8.256v1.748h5.116L7.928 17.36"></path>
    </symbol>
    <symbol id="selbstkontrolle_small" viewBox="0 0 20 11">
        <path d="M10.127 10c-1.93 0-3.5-1.57-3.5-3.5s1.57-3.5 3.5-3.5 3.5 1.57 3.5 3.5h1c0-2.482-2.019-4.5-4.5-4.5s-4.5 2.018-4.5 4.5c0 .9.272 1.734.728 2.438C4.338 7.833 2.83 6.173 2.268 5.5 3.273 4.285 6.341 1 10.128 1c3.814 0 6.983 3.452 7.858 4.5-1.005 1.215-4.073 4.5-7.859 4.5zm8.901-4.8c-.158-.21-3.927-5.2-8.9-5.2C5.48 0 1.9 4.326 1.23 5.195l-.23.3.225.303C1.384 6.01 5.151 11 10.127 11c4.647 0 8.226-4.327 8.896-5.194l.232-.3-.227-.304z"
              fill="#666"></path>
        <path d="M10.127 5c-.827 0-1.5.673-1.5 1.5S9.3 8 10.127 8s1.5-.673 1.5-1.5-.673-1.5-1.5-1.5" fill="#666"></path>
    </symbol>
    <symbol id="SBB_product_bex" viewBox="0 0 52 20">
        <path d="M24.2 15h-2.7l4.4-5.1L23.4 5h2.1l1 1.9c0 .1.3.5.7 1.4 0 0 .1.1.1.2.6-.7 1-1.2 1.4-1.7L30.3 5h2.6l-4.6 5.3 2.5 4.7h-2.3l-.8-1.5c-.4-.8-.7-1.4-.8-1.7-.2.3-.6.8-1.4 1.7L24.2 15zm-10.6 0l2.1-10h7.4l-.3 1.7h-5.4L17 8.9h5.2l-.3 1.7h-5.2l-.7 2.7h5.8l-.3 1.7h-7.9zm-7.2-1.6h2c.8 0 1.4-.1 1.7-.2.3-.1.5-.3.7-.5.2-.2.3-.5.3-.8 0-.3-.1-.6-.4-.8s-.7-.3-1.2-.3H6.9l-.5 2.6zM7.3 9h1.6c.7 0 1.2 0 1.5-.1s.5-.3.7-.5c.2-.2.2-.5.2-.7 0-.3-.1-.5-.2-.6s-.4-.3-.6-.3H7.8L7.3 9zM4 15L6.1 5h3.4c.7 0 1.3 0 1.6.1.5.1.9.2 1.2.4.3.2.6.5.8.8.2.3.3.7.3 1.1 0 .6-.2 1-.5 1.4s-.8.7-1.4.9c.5.1.9.4 1.2.8.3.4.4.8.4 1.2 0 .6-.2 1.2-.5 1.7s-.8.9-1.4 1.2c-.6.3-1.4.4-2.5.4H4z"></path>
    </symbol>
    <symbol id="SBB_product_cnl" viewBox="0 0 52 20">
        <path d="M23.6 14.7c-.1 0-.2-.1-.2-.2s.1-.2.2-.2h.3c.5-.1.9-.4 1.1-1.1L26.2 7c0-.3.1-.5.1-.6v-.3c0-.4-.2-.6-.6-.7-.2 0-.3-.1-.3-.2s.1-.2.4-.2h4c.1 0 .1.1.1.2s-.1.2-.3.2h-.4c-.4 0-.7.3-.8.9L27 12.7c0 .1-.1.3-.1.5v.5c0 .4.3.6.8.6.7 0 1.5-.3 2.3-.9s1.4-1.3 1.8-2.1v-.1l.1-.2.1-.1c.1 0 .2 0 .2.1l-.1.2-1.3 3.4h-7.2zm-8.2-2.8c-.1.4-.1.8-.1 1.1 0 .4.1.7.3.9.2.3.4.4.6.4h.2c.1 0 .2.1.2.2s-.1.1-.1.2H13c-.1 0-.2-.1-.2-.2v-.1l.1-.1h.2c.5-.1.9-.3 1.2-.7s.5-.9.7-1.6l1.2-5.6-.2-.3c-.2-.3-.5-.5-.9-.6H15c-.2 0-.3-.1-.3-.2s.1-.2.3-.2h2.7l3.6 6.6.9-4.2v-.8c0-.6-.3-1-.9-1.1H21v-.1c0-.1.1-.2.2-.2h3.2c.1 0 .1 0 .1.1v.1c0 .1-.1.2-.2.2h-.1c-.3 0-.5.1-.8.3-.3.2-.5.5-.6.8l.2.2-.1.3-1.7 7.6c-.1.1-.2.1-.2.1-.1 0-.1 0-.1-.1l-.2-.4-4.1-7.6-1.2 5zm-3-1c.1-.1.1-.1.2-.1s.1.1.1.2l-.7 3.7c0 .1-.1.2-.2.2s-.2-.1-.2-.2v-.2c0-.3-.2-.4-.4-.4h-.3l-.4.2c-.7.3-1.5.5-2.3.5-1.3 0-2.3-.4-3.1-1.1-.8-.8-1.2-1.8-1.2-3 0-1.5.6-2.9 1.7-4S8.1 5 9.7 5c.8 0 1.5.2 2.3.5l.6.3c.1 0 .2.1.3.1.2 0 .4-.1.5-.4l.2-.3.1-.1h.1c.1 0 .1 0 .1.1L13 9v.2l-.1.1s-.1 0-.1.1h-.1v-.7c0-.9-.3-1.7-.8-2.4s-1.1-1-1.9-1c-1.1.1-2 .7-2.7 1.9-.8 1.2-1.1 2.6-1.1 4.2 0 2.1.7 3.1 2.2 3.1 1 0 1.8-.3 2.4-1 .6-.6 1-1.2 1.3-1.8l.1-.3.2-.4v-.1z"></path>
    </symbol>
    <symbol id="SBB_product_ec" viewBox="0 0 52 20">
        <path d="M20.9 15h-.3s-.1 0-.2-.1c-.1 0-.2-.1-.3-.2l-.3-.3-2.1-1.8-.3-.2c-.1-.1-.2-.2-.2-.4 0-.1 0-.2.1-.2 0-.1.1-.2.3-.4L24 5h15.6l-2.3 2.4h-11L21.7 12h12.5l-3 3H20.9zM7.7 15c-.1 0-.2 0-.3-.1-.1 0-.2-.1-.3-.1l-.3-.3-2.2-1.8-.4-.3c-.1-.1-.2-.2-.2-.4s.1-.4.3-.5l5.9-5.9.2-.2.2-.2c.2-.1.4-.2.7-.2h10.8l-2.3 2.4h-6.9L11.4 9h6.9l-1.6 1.5H9.9L8.3 12h6.8l3.5 3H7.7z"></path>
    </symbol>
    <symbol id="SBB_product_en" viewBox="0 0 52 20">
        <path d="M29 5v7.3L36.3 5H41L31 15h-5.1V7.7L18.6 15H14L24 5h5zM7.8 15h-.5l-.3-.1-.3-.3-2.2-1.8-.4-.3c0-.2-.1-.3-.1-.5s.1-.4.2-.5l5.9-5.9.2-.2.2-.2c.2-.1.5-.2.8-.2h10.8l-2.3 2.4h-6.9L11.4 9h6.9l-1.6 1.5H9.8L8.3 12h6.8l-3 3H7.8z"></path>
    </symbol>
    <symbol id="SBB_product_gex" viewBox="0 0 52 20">
        <path d="M23.6 14.8H21l4.3-4.9-2.4-4.8H25l.9 1.9c0 .1.2.5.6 1.3 0 0 .1.1.1.2.5-.7 1-1.2 1.4-1.6l1.5-1.7H32l-4.4 5.1 2.4 4.6h-2.2l-.8-1.5c-.4-.8-.6-1.3-.8-1.7-.2.3-.6.8-1.3 1.6l-1.3 1.5zm-10.2 0l2-9.7h7.2l-.3 1.6h-5.2L16.6 9h5l-.3 1.6h-5l-.6 2.6h5.6l-.3 1.6h-7.6zM8.7 9.7H13l-.9 4.1c-.5.3-1.1.6-1.9.8-.6.3-1.4.4-2.1.4-1.2 0-2.1-.3-2.8-.8C4.4 13.5 4 12.4 4 11c0-1 .2-1.9.6-2.7.4-1 1.1-1.8 1.9-2.4S8.3 5 9.4 5s2 .3 2.7.8c.7.5 1.1 1.3 1.3 2.3l-1.9.2c-.2-.5-.4-1-.8-1.2-.3-.4-.7-.5-1.3-.5-.6 0-1.2.2-1.8.5-.5.3-.9.9-1.2 1.6-.3.7-.5 1.4-.5 2.3 0 .8.2 1.4.6 1.8.4.4.9.6 1.6.6.4 0 .9-.1 1.3-.2s.8-.3 1.2-.4l.3-1.4H8.4l.3-1.7z"></path>
    </symbol>
    <symbol id="SBB_product_ic" viewBox="0 0 52 20">
        <path d="M29.7 5.5l-1.3 2.8h-11l-1.7 3.8h11l-1.3 2.8H10.8l4.3-9.4h14.6zm-16.9 0l-4.3 9.4H5l4.3-9.4h3.5z"></path>
    </symbol>
    <symbol id="SBB_product_ice" viewBox="0 0 52 20">
        <path d="M18.3 5.2H24l-.3 1.5h-3.8l-.5 2.4h3.4l-.3 1.5h-3.4l-.6 2.7h3.8l-.3 1.5h-5.8l2.1-9.6zm-2 1.9c-.3-.2-.6-.3-.9-.4-.3-.1-.8-.2-1.2-.2-1.1 0-2 .4-2.7 1.1-.7.7-1 1.6-1 2.8 0 .9.3 1.7.8 2.3.5.6 1.2.9 2 .9.3 0 .6 0 .9-.1s.7-.2 1.1-.5l-.3 1.9c-.1 0-.3.1-.5.1s-.5.1-.7.1h-.9c-1.4 0-2.4-.4-3.2-1.2-.8-.8-1.2-1.9-1.2-3.4 0-1.7.5-3 1.5-4S12.4 5 14.1 5c.6 0 1.1 0 1.4.1.4.1.6.1.7.2s.3.1.6.2l-.5 1.6zM6 5.2h2l-2 9.7H4l2-9.7z"></path>
    </symbol>
    <symbol id="SBB_product_icn" viewBox="0 0 52 20">
        <path d="M18.3 5.2l-2.1 9.7h1.9l1.6-7.4 2 7.4h2.5l2.1-9.7h-1.8l-1.6 7.4-2.1-7.4h-2.5zm-2 1.9l.5-1.6c-.3-.1-.5-.2-.6-.2-.2 0-.3-.1-.4-.1-.2 0-.5-.1-.9-.1H14c-.8 0-1.6.1-2.3.4-.7.2-1.3.5-1.8 1S9 7.6 8.8 8.2c-.3.7-.4 1.4-.4 2.2 0 1.4.4 2.6 1.2 3.4.8.7 1.8 1.1 3.2 1.1.3 0 .6 0 1-.1.4 0 .7-.1 1.1-.2l.3-1.9c-.4.2-.7.4-1 .5-.3.1-.6.1-1 .1s-.8-.1-1.2-.2c-.3-.1-.6-.4-.9-.6s-.4-.6-.6-1c-.1-.4-.2-.8-.2-1.3 0-.6.1-1.1.3-1.5.2-.5.4-.9.8-1.2.3-.3.7-.6 1.2-.8.5-.2 1-.3 1.5-.3.4 0 .7 0 1.1.1.3.2.7.4 1.1.6zM6 5.2l-2 9.7h2l2-9.7H6z"></path>
    </symbol>
    <symbol id="SBB_product_ir" viewBox="0 0 52 20">
        <path d="M27.8 5l-2.5 5.9-.2.5c-.1.1-.1.2-.1.2 0 .1-.1.1-.1.1l-.1.1-.1.1c-.1.1-.4.1-.9.1h-2c.4.3.8.6 1.1.8.3.2.5.4.7.6.2.1.4.3.7.6.3.3.7.6 1.1 1h-4.3c-.5-.5-1-1-1.5-1.4l-1.2-1.2-1.2-1.2-1.4-1.4h6.3l1-2.4h-7.6l-3 7.5H9l4.3-10h14.5zM11.6 5L7.4 15H4L8.3 5h3.3z"></path>
    </symbol>
    <symbol id="SBB_product_re" viewBox="0 0 52 20">
        <path d="M13.3 5v10H19v-1.7h-3.7v-2.7h3.4V9h-3.4V6.7h3.6V5h-5.6zM5 15h2v-4.2h1.1c.8 0 1.2.5 1.2 1.3V14c0 .4.1.8.3 1h2.2v-.1c-.4-.2-.4-.7-.4-1.8 0-2.1-.2-2.9-1.6-3.1 1.1-.2 1.7-1.1 1.7-2.5 0-1.7-1-2.6-2.7-2.6H5V15zm2-8.5h1c.9 0 1.4.5 1.4 1.4 0 1.1-.5 1.5-1.5 1.5H7V6.5z"></path>
    </symbol>
    <symbol id="SBB_product_rj" viewBox="0 0 52 20">
        <path d="M22.7 5l-2.5 5.9-.2.5c-.1.1-.1.2-.1.2 0 .1-.1.1-.1.1l-.1.1-.1.1c-.1.1-.4.1-.9.1h-2c.4.3.8.6 1.1.8.3.2.5.4.7.6.2.1.4.3.7.6.3.3.7.6 1.1 1H16c-.5-.5-1-1-1.5-1.4l-1.2-1.2-1.2-1.2-1.4-1.4H17l1-2.4h-7.6l-3 7.5H4L8.3 5h14.4z"></path>
    </symbol>
    <symbol id="SBB_product_rx" viewBox="0 0 52 20">
        <path d="M8.3 5L4 15h3.7l1.6-4 1.5-3.5h7.8l-1 2.4H11c.5.5.9 1 1.3 1.4l1.2 1.2 1.2 1.2c.4.4.9.8 1.4 1.3h9.3l1.7-1.3 1.8-1.4 1.2 2.7h5.4L34 12.3l-1.5-2.5L39.8 5h-5.6l-3.1 2.3L30 5h-5.3l2.8 4.8-7.3 4.8c-.4-.3-.8-.6-1.3-1s-1.1-.9-1.9-1.5h2.4c.3 0 .5-.1.6-.1.1-.1.3-.3.5-.7L23.1 5H8.3z"></path>
    </symbol>
    <symbol id="SBB_product_sn" viewBox="0 0 52 20">
        <path d="M13.2 14.8h2V8.4l4 6.4h2.1V5.2h-2v6.4l-4-6.4h-2.1v9.6zM4 11.6C4 14 6 15 8.1 15c2.6 0 4-1.3 4-3.1 0-2.2-2.1-2.6-2.8-2.8-2.5-.6-2.9-.7-2.9-1.4 0-.8.8-1.1 1.4-1.1 1 0 1.8.3 1.9 1.4h2c0-2.1-1.8-3-3.8-3-1.7 0-3.6.9-3.6 2.9 0 1.8 1.4 2.3 2.8 2.7 1.5.4 2.9.5 2.9 1.6 0 1-1.1 1.2-1.9 1.2-1.1 0-2.1-.5-2.1-1.8H4z"></path>
    </symbol>
    <symbol id="SBB_product_tgv" viewBox="0 0 52 20">
        <path d="M21.7 5.2h1.9l.9 7.5 4-7.5h2.1l-5.4 9.7H23l-1.3-9.7zm-1.8 2c-.2-.1-.4-.2-.5-.3s-.4-.2-.8-.3c-.3-.1-.8-.1-1.3-.1-1.1 0-2.1.4-2.8 1.1-.7.8-1.1 1.7-1.1 2.9 0 .9.3 1.6.8 2.1s1.2.8 2.2.8c.3 0 .6 0 .7-.1l.5-2.6h-2l.3-1.5h3.9l-1.1 5.3c-.2.1-.4.1-.5.2-.1 0-.4.1-.7.2-.4.1-.9.1-1.5.1-1.5 0-2.7-.4-3.5-1.1s-1.2-1.8-1.2-3.2c0-1.7.5-3.1 1.6-4.1C14 5.5 15.4 5 17.2 5c.6 0 1.1 0 1.6.1s1 .2 1.5.4l-.4 1.7zm-15.6-2h7.5l-.3 1.5H8.8L7 14.8H5l1.8-8.1H4l.3-1.5z"></path>
    </symbol>
    <symbol id="SBB_product_vae" viewBox="0 0 52 20">
        <path d="M22.7 15h7.6v-1.8h-5.4v-2.5h4.8V9h-4.8V6.8h5.3V5h-7.5v10zM17 7.5l1.3 3.7h-2.6L17 7.5zM12.1 15h2.2l.8-2.2h3.7l.8 2.2h2.3L18.1 5h-2.3l-3.7 10zM13 5h-2.3l-2.3 7-2.1-7H4l3.2 10h2.5L13 5z"></path>
    </symbol>
</svg>